<?xml version="1.0" standalone="no"?><!DOCTYPE svg PUBLIC "-//W3C//DTD SVG 1.1//EN" "http://www.w3.org/Graphics/SVG/1.1/DTD/svg11.dtd"><svg class="icon" width="200px" height="200.00px" viewBox="0 0 1024 1024" version="1.1" xmlns="http://www.w3.org/2000/svg"><path fill="#707070" d="M127.601246 768.797508a127.601246 127.601246 0 0 1-127.601246-127.601246v-170.134995a127.601246 127.601246 0 0 1 255.202492 0v170.134995a127.601246 127.601246 0 0 1-127.601246 127.601246z m0-361.536864a63.800623 63.800623 0 0 0-63.800623 63.800623v170.134995a63.800623 63.800623 0 0 0 127.601246 0v-170.134995a63.800623 63.800623 0 0 0-63.800623-63.800623zM893.208723 768.797508a127.601246 127.601246 0 0 1-127.601246-127.601246v-170.134995a127.601246 127.601246 0 0 1 255.202492 0v170.134995a127.601246 127.601246 0 0 1-127.601246 127.601246z m0-361.536864a63.800623 63.800623 0 0 0-63.800623 63.800623v170.134995a63.800623 63.800623 0 0 0 127.601246 0v-170.134995a63.800623 63.800623 0 0 0-63.800623-63.800623z"  /><path fill="#707070" d="M893.208723 389.183801a31.900312 31.900312 0 0 1-31.900312-31.900312C861.308411 194.5919 703.933541 63.800623 510.404984 63.800623S159.501558 194.5919 159.501558 357.283489a31.900312 31.900312 0 0 1-63.800623 0C95.700935 160.352233 281.786085 0 510.404984 0s414.70405 160.352233 414.70405 357.283489a31.900312 31.900312 0 0 1-31.900311 31.900312zM542.305296 981.466251a31.900312 31.900312 0 0 1 0-63.800623c131.854621 0 256.903842-74.008723 334.527933-197.781931a31.900312 31.900312 0 0 1 54.017861 34.026999C841.530218 896.398754 696.277466 981.466251 542.305296 981.466251z"  /><path fill="#707070" d="M340.26999 853.865005m85.067497 0l170.134995 0q85.067497 0 85.067497 85.067498l0 0q0 85.067497-85.067497 85.067497l-170.134995 0q-85.067497 0-85.067497-85.067497l0 0q0-85.067497 85.067497-85.067498Z"  /><path fill="#707070" d="M393.437175 619.929387a31.900312 31.900312 0 0 1-31.900311-31.900311v-106.334372a31.900312 31.900312 0 0 1 63.800623 0v106.334372a31.900312 31.900312 0 0 1-31.900312 31.900311zM627.372793 619.929387a31.900312 31.900312 0 0 1-31.900311-31.900311v-106.334372a31.900312 31.900312 0 0 1 63.800623 0v106.334372a31.900312 31.900312 0 0 1-31.900312 31.900311z"  /></svg>